<?xml version="1.0" encoding="utf-8"?>
<!-- Generator: Adobe Illustrator 27.3.1, SVG Export Plug-In . SVG Version: 6.00 Build 0)  -->
<svg version="1.1" id="Layer_1" xmlns="http://www.w3.org/2000/svg" xmlns:xlink="http://www.w3.org/1999/xlink" x="0px" y="0px"
	 viewBox="0 0 2048 2048" style="enable-background:new 0 0 2048 2048;" xml:space="preserve">
<style type="text/css">
	.st0{fill:none;stroke:#00AEEF;stroke-width:10;stroke-miterlimit:10;}
	.st1{fill:none;stroke:#00AEEF;stroke-width:10;stroke-miterlimit:10;stroke-dasharray:49.9072,49.9072;}
	.st2{fill:none;stroke:#00AEEF;stroke-width:10;stroke-miterlimit:10;stroke-dasharray:50.0464,50.0464;}
	.st3{fill:none;stroke:#00AEEF;stroke-width:10;stroke-miterlimit:10;stroke-dasharray:60.4397,60.4397;}
	.st4{fill:none;stroke:#00AEEF;stroke-width:10;stroke-miterlimit:10;stroke-dasharray:42.3915,42.3915;}
	.st5{fill:none;stroke:#00AEEF;stroke-width:10;stroke-miterlimit:10;stroke-dasharray:42.535,42.535;}
	.st6{fill:none;stroke:#00AEEF;stroke-width:10;stroke-miterlimit:10;stroke-dasharray:53.9319,53.9319;}
	.st7{fill:none;stroke:#00AEEF;stroke-width:10;stroke-miterlimit:10;stroke-dasharray:45.966,45.966;}
	.st8{fill:none;stroke:#00AEEF;stroke-width:10;stroke-miterlimit:10;stroke-dasharray:49.5007,49.5007;}
	.st9{fill:none;stroke:#00AEEF;stroke-width:10;stroke-miterlimit:10;stroke-dasharray:57.2,57.2;}
	.st10{fill:#FBB040;stroke:#00AEEF;stroke-width:10;stroke-miterlimit:10;}
</style>
<g>
	<g>
		<polyline class="st0" points="1701.28,987.38 1726.28,987.38 1726.28,962.38 		"/>
		<line class="st1" x1="1726.28" y1="912.48" x2="1726.28" y2="438.36"/>
		<polyline class="st0" points="1726.28,413.4 1726.28,388.4 1701.28,388.4 		"/>
		<line class="st2" x1="1651.23" y1="388.4" x2="1175.79" y2="388.4"/>
		<polyline class="st0" points="1150.77,388.4 1125.77,388.4 1125.77,413.4 		"/>
		<polyline class="st0" points="1125.77,482.89 1125.77,507.89 1100.77,507.89 		"/>
		<line class="st3" x1="1040.33" y1="507.89" x2="949.67" y2="507.89"/>
		<polyline class="st0" points="919.45,507.89 894.45,507.89 894.45,482.89 		"/>
		<polyline class="st0" points="894.45,413.4 894.45,388.4 869.45,388.4 		"/>
		<line class="st1" x1="819.54" y1="388.4" x2="345.42" y2="388.4"/>
		<polyline class="st0" points="320.47,388.4 295.47,388.4 295.47,413.4 		"/>
		<line class="st1" x1="295.47" y1="463.31" x2="295.47" y2="937.43"/>
		<polyline class="st0" points="295.47,962.38 295.47,987.38 320.47,987.38 		"/>
		<line class="st1" x1="370.38" y1="987.38" x2="844.49" y2="987.38"/>
		<polyline class="st0" points="869.45,987.38 894.45,987.38 894.45,1012.38 		"/>
		<line class="st4" x1="894.45" y1="1054.77" x2="894.45" y2="1203.14"/>
		<polyline class="st0" points="894.45,1224.34 894.45,1249.34 869.45,1249.34 		"/>
		<line class="st5" x1="826.91" y1="1249.34" x2="592.97" y2="1249.34"/>
		<polyline class="st0" points="571.7,1249.34 546.7,1249.34 546.7,1274.34 		"/>
		<line class="st6" x1="546.7" y1="1328.27" x2="546.7" y2="1517.03"/>
		<polyline class="st0" points="546.7,1544 546.7,1569 571.7,1569 		"/>
		<polyline class="st0" points="634.04,1569 659.04,1569 659.04,1594 		"/>
		<polyline class="st0" points="659.04,1640 659.04,1665 612.06,1665 612.06,1690 		"/>
		<line class="st7" x1="612.06" y1="1735.97" x2="612.06" y2="1896.85"/>
		<polyline class="st0" points="612.06,1919.83 612.06,1944.83 637.06,1944.83 		"/>
		<line class="st8" x1="686.56" y1="1944.83" x2="1354.82" y2="1944.83"/>
		<polyline class="st0" points="1379.57,1944.83 1404.57,1944.83 1404.57,1919.83 		"/>
		<line class="st7" x1="1404.57" y1="1873.86" x2="1404.57" y2="1712.98"/>
		<polyline class="st0" points="1404.57,1690 1404.57,1665 1357.6,1665 1357.6,1640 		"/>
		<polyline class="st0" points="1357.6,1594 1357.6,1569 1382.6,1569 		"/>
		<polyline class="st0" points="1436.77,1569 1461.77,1569 1461.77,1544 		"/>
		<line class="st6" x1="1461.77" y1="1490.07" x2="1461.77" y2="1301.31"/>
		<polyline class="st0" points="1461.77,1274.34 1461.77,1249.34 1436.77,1249.34 		"/>
		<line class="st9" x1="1379.57" y1="1249.34" x2="1179.37" y2="1249.34"/>
		<polyline class="st0" points="1150.77,1249.34 1125.77,1249.34 1125.77,1224.34 		"/>
		<line class="st4" x1="1125.77" y1="1181.95" x2="1125.77" y2="1033.58"/>
		<polyline class="st0" points="1125.77,1012.38 1125.77,987.38 1150.77,987.38 		"/>
		<line class="st2" x1="1200.81" y1="987.38" x2="1676.25" y2="987.38"/>
	</g>
</g>
<rect x="1123.72" y="1249.34" class="st10" width="202.21" height="105.7"/>
<polygon class="st10" points="854.11,719.3 854.11,664.15 795.89,664.15 795.89,737.68 690.19,737.68 690.19,834.19 921.51,834.19 
	921.51,737.68 921.51,719.3 "/>
<rect x="1263.13" y="635.04" class="st10" width="125.62" height="105.7"/>
<rect x="1183.47" y="132.57" class="st10" width="289.53" height="94.98"/>
<rect x="468.06" y="506.36" class="st10" width="47.49" height="36.77"/>
<rect x="526.28" y="621.26" class="st10" width="124.09" height="148.6"/>
<rect x="921.51" y="37.6" class="st10" width="182.3" height="286.47"/>
<rect x="1082.36" y="1597.09" class="st10" width="116.43" height="67.4"/>
<rect x="1183.47" y="461.94" class="st10" width="98.81" height="98.81"/>
</svg>
